<svg width="20" height="20" viewBox="0 0 20 20" fill="none" xmlns="http://www.w3.org/2000/svg">
<path d="M5.07029 1C3.99203 1.00354 2.95896 1.43326 2.19609 2.19609C1.43322 2.95891 1.00354 3.99201 1 5.07029V14.9297C1.00354 16.008 1.43326 17.041 2.19609 17.8039C2.95891 18.5668 3.99201 18.9965 5.07029 19H14.9297C16.008 18.9965 17.041 18.5667 17.8039 17.8039C18.5668 17.0411 18.9965 16.008 19 14.9297V5.07029C18.9965 3.99203 18.5667 2.95896 17.8039 2.19609C17.0411 1.43322 16.008 1.00354 14.9297 1H5.07029ZM9.99989 14.4052C8.83038 14.4052 7.7086 13.941 6.88209 13.1143C6.05458 12.2868 5.59031 11.1651 5.59031 9.99562C5.59031 8.82612 6.05457 7.70524 6.8812 6.87782C7.70783 6.05119 8.8295 5.58604 9.999 5.58604C11.1685 5.58604 12.2903 6.05119 13.1177 6.87782C13.9443 7.70445 14.4086 8.82612 14.4086 9.99562C14.4086 11.1651 13.9443 12.2869 13.1177 13.1134C12.2911 13.9401 11.1694 14.4052 9.99991 14.4052L9.99989 14.4052ZM15.5029 5.83683C15.0005 5.83683 14.5469 5.53383 14.3546 5.06956C14.1624 4.60529 14.2687 4.07105 14.624 3.71575C14.9793 3.36046 15.5144 3.25413 15.9787 3.4464C16.4429 3.63867 16.7451 4.09231 16.7451 4.59466C16.7451 4.92424 16.6139 5.23967 16.3809 5.47268C16.1479 5.70569 15.8325 5.83683 15.5029 5.83683Z" fill="#979797"/>
</svg>
