<svg width="252" height="62" viewBox="0 0 252 62" fill="none" xmlns="http://www.w3.org/2000/svg">
<path fill-rule="evenodd" clip-rule="evenodd" d="M226.088 6C240.399 6 252 17.6402 252 31.9995C252 46.3585 240.399 58 226.088 57.9997C211.777 57.9997 200.176 46.3585 200.176 31.9995C200.176 17.6402 211.777 6 226.088 6ZM236.963 27.8712L238.814 20.6413L243.844 20.641L238.141 42.8896H233.293L233.819 40.833H233.758C233.092 41.9867 231.722 43.3257 229.488 43.3257C227.891 43.3257 226.793 42.7774 226.239 41.5471C225.475 42.4938 224.062 43.3332 222.453 43.3332C219.068 43.3332 217.889 40.9036 219.502 34.6097L220.5 30.5919L214.309 42.8899H208.344L208.54 26.0327H213.757L212.524 38.4639H212.585L217.76 26.0327H221.633L222.972 20.6419H228.002L224.598 34.3597C223.904 37.0693 223.332 39.6569 225.228 39.6569C225.445 39.6569 225.644 39.6131 225.831 39.5382C225.789 38.2627 226.014 36.6369 226.535 34.6038C227.881 29.3668 229.593 25.5966 233.723 25.5966C235.124 25.5966 236.523 26.0621 236.898 27.8712H236.963ZM232.231 39.6501C233.723 39.6501 234.497 37.844 235.336 34.5704C236.105 31.5795 236.569 29.2736 234.86 29.2732C233.026 29.2732 232.416 31.2995 231.633 34.3529C230.937 37.0621 230.336 39.6501 232.231 39.6501Z" fill="white"/>
<path d="M141.711 26.0386C135.858 26.0386 133 32.0829 133 37.6811C133 41.7466 134.975 43.3849 138.139 43.3849C143.926 43.3849 146.92 37.2378 146.92 31.8104C146.921 27.9166 144.947 26.0386 141.711 26.0386ZM138.548 41.1679C136.438 41.1679 135.587 39.8702 135.587 37.617C135.587 33.6528 137.218 28.2591 141.339 28.2591C143.074 28.2591 144.333 29.2847 144.333 31.8444C144.334 35.5652 142.598 41.1679 138.548 41.1679ZM158.801 26.0386C156.451 26.0386 154.987 27.6114 154.034 28.667C153.931 28.1224 153.727 27.4056 153.558 26.9601C153.353 26.4491 153.184 26.2447 153.045 26.2447C152.912 26.2447 152.807 26.3098 152.707 26.3477L151.447 26.9287C151.277 26.9941 150.935 27.0962 150.935 27.335C150.935 27.5754 151.073 27.6785 151.106 27.8152C151.447 28.5666 151.447 29.1793 151.447 29.7305C151.447 30.446 151.378 31.2294 151.244 31.7414L147.397 49.8064C147.397 49.9768 147.397 50.0799 147.635 50.0799C147.771 50.0799 147.873 50.0122 147.943 50.0122L149.643 49.6033C149.881 49.5333 149.948 49.2611 149.98 49.0553L151.446 42.2602C152.196 42.7045 153.216 43.3852 155.191 43.3852C160.229 43.3852 162.645 36.9326 162.645 31.0937C162.645 27.7115 161.249 26.0386 158.801 26.0386ZM155.089 41.0989C153.59 41.0989 152.773 40.5873 151.923 40.074L153.081 34.61C153.795 31.1958 155.598 28.3278 158.186 28.3278C159.614 28.3278 160.058 29.4911 160.058 31.2294C160.058 34.8485 158.833 41.0989 155.089 41.0989ZM178.846 30.41C178.846 27.8842 177.38 26.0386 174.352 26.0386C169.281 26.0386 165.742 31.3322 165.742 37.1367C165.742 40.9281 167.41 43.3849 171.253 43.3849C174.555 43.3849 177.552 41.373 177.552 40.9618C177.552 40.8958 177.519 40.8581 177.484 40.7888L176.666 39.5614C176.599 39.4616 176.497 39.355 176.361 39.355C175.884 39.355 174.521 40.9946 171.491 40.9946C169.281 40.9946 168.328 39.6622 168.328 37.2372C168.328 36.9656 168.362 36.6918 168.362 36.386C171.358 36.3513 178.846 36.3513 178.846 30.41ZM173.98 28.1561C175.647 28.1561 176.461 29.0796 176.461 30.513C176.461 34.2708 170.506 34.2708 168.633 34.2708C169.01 32.5968 170.099 28.1561 173.98 28.1561ZM191.982 26.0386C188.952 26.0386 187.079 27.8839 185.823 29.6556H185.753C185.753 29.3511 185.856 28.8067 185.856 28.1224C185.856 27.0638 185.479 26.0389 185.207 26.0389C185.071 26.0389 184.936 26.1419 184.731 26.2106L183.507 26.7219C183.372 26.7543 183.201 26.8587 183.201 26.9944C183.335 27.6788 183.472 28.3628 183.472 29.0462C183.472 29.5235 183.372 30.2752 183.236 30.99L180.818 42.463C180.785 42.535 180.785 42.6358 180.785 42.7041C180.785 42.8405 180.887 42.9079 181.056 42.9079H182.825C183.097 42.9079 183.166 42.8085 183.236 42.568L184.8 35.1216C185.277 32.87 187.286 28.3275 190.96 28.3275C191.982 28.3275 192.493 28.8401 192.493 29.7947C192.493 30.2405 192.39 30.7185 192.288 31.1634L189.905 42.4627C189.872 42.5347 189.872 42.6354 189.872 42.7038C189.872 42.8402 189.972 42.9076 190.142 42.9076H191.912C192.187 42.9076 192.255 42.8081 192.319 42.5677L194.738 31.163C194.908 30.3763 195.08 29.5896 195.08 28.7685C195.079 26.9601 193.75 26.0386 191.982 26.0386Z" fill="white"/>
<path d="M12.85 29.35C16.05 29.35 18.85 27.775 20.35 25.3L16.9 23.3C16.15 24.65 14.625 25.45 12.85 25.45C9.75 25.45 7.75 23.375 7.75 20.25C7.75 17.125 9.75 15.05 12.85 15.05C14.625 15.05 16.125 15.85 16.9 17.2L20.35 15.2C18.825 12.725 16.025 11.15 12.85 11.15C7.575 11.15 3.75 15.1 3.75 20.25C3.75 25.4 7.575 29.35 12.85 29.35ZM29.6688 16.15C28.0188 16.15 26.7688 16.75 26.0938 17.675V11.5H22.3438V29H26.0938V22.175C26.0938 20.4 27.0438 19.6 28.4188 19.6C29.6188 19.6 30.5938 20.325 30.5938 21.875V29H34.3438V21.325C34.3438 17.95 32.1938 16.15 29.6688 16.15ZM40.6689 18.725V16.5H36.9189V29H40.6689V23.35C40.6689 20.875 42.8689 20.25 44.4189 20.5V16.25C42.8439 16.25 41.1689 17.05 40.6689 18.725ZM48.0469 15.4C49.2719 15.4 50.2969 14.375 50.2969 13.15C50.2969 11.925 49.2719 10.9 48.0469 10.9C46.8219 10.9 45.7969 11.925 45.7969 13.15C45.7969 14.375 46.8219 15.4 48.0469 15.4ZM46.1719 29H49.9219V16.5H46.1719V29ZM56.0939 20.15C56.0939 19.7 56.4939 19.45 57.1439 19.45C57.9689 19.45 58.4689 19.9 58.8189 20.55L62.0189 18.825C60.9689 17.05 59.1689 16.15 57.1439 16.15C54.5439 16.15 52.2439 17.525 52.2439 20.25C52.2439 24.575 58.3939 23.85 58.3939 25.225C58.3939 25.725 57.9439 26 57.0439 26C55.9439 26 55.2439 25.475 54.9189 24.525L51.6689 26.375C52.6439 28.4 54.5439 29.35 57.0439 29.35C59.7439 29.35 62.2439 28.125 62.2439 25.25C62.2439 20.625 56.0939 21.575 56.0939 20.15ZM71.075 20.1V16.5H68.5V13L64.75 14.125V16.5H62.75V20.1H64.75V24.525C64.75 28.025 66.175 29.5 71.075 29V25.6C69.425 25.7 68.5 25.6 68.5 24.525V20.1H71.075ZM75.0732 15.4C76.2982 15.4 77.3232 14.375 77.3232 13.15C77.3232 11.925 76.2982 10.9 75.0732 10.9C73.8482 10.9 72.8232 11.925 72.8232 13.15C72.8232 14.375 73.8482 15.4 75.0732 15.4ZM73.1982 29H76.9482V16.5H73.1982V29ZM88.7674 16.5V17.675C87.9424 16.725 86.7174 16.15 85.0424 16.15C81.7674 16.15 79.0674 19.025 79.0674 22.75C79.0674 26.475 81.7674 29.35 85.0424 29.35C86.7174 29.35 87.9424 28.775 88.7674 27.825V29H92.5174V16.5H88.7674ZM85.7924 25.8C84.0674 25.8 82.8174 24.625 82.8174 22.75C82.8174 20.875 84.0674 19.7 85.7924 19.7C87.5174 19.7 88.7674 20.875 88.7674 22.75C88.7674 24.625 87.5174 25.8 85.7924 25.8ZM102.594 16.15C100.944 16.15 99.6936 16.75 99.0186 17.675V16.5H95.2686V29H99.0186V22.175C99.0186 20.4 99.9686 19.6 101.344 19.6C102.544 19.6 103.519 20.325 103.519 21.875V29H107.269V21.325C107.269 17.95 105.119 16.15 102.594 16.15Z" fill="white"/>
<path d="M8.5 49.15V35.5H4.5V53H14.75V49.15H8.5ZM19.6146 48.25H28.4896C28.5896 47.775 28.6396 47.275 28.6396 46.75C28.6396 42.975 25.9396 40.15 22.2896 40.15C18.3396 40.15 15.6396 43.025 15.6396 46.75C15.6396 50.475 18.2896 53.35 22.5646 53.35C24.9396 53.35 26.7896 52.475 28.0146 50.775L25.0146 49.05C24.5146 49.6 23.6396 50 22.6146 50C21.2396 50 20.0896 49.55 19.6146 48.25ZM19.5396 45.45C19.8896 44.175 20.8396 43.475 22.2646 43.475C23.3896 43.475 24.5146 44 24.9146 45.45H19.5396ZM38.1533 40.5L35.8033 48.15L33.0283 40.5H28.9033L33.8783 52.425C33.3283 53.95 32.5033 54.5 30.7533 54.5V58C34.2533 58.175 36.4783 56.6 37.8783 52.625L42.1533 40.5H38.1533ZM46.3283 44.15C46.3283 43.7 46.7283 43.45 47.3783 43.45C48.2033 43.45 48.7033 43.9 49.0533 44.55L52.2533 42.825C51.2033 41.05 49.4033 40.15 47.3783 40.15C44.7783 40.15 42.4783 41.525 42.4783 44.25C42.4783 48.575 48.6283 47.85 48.6283 49.225C48.6283 49.725 48.1783 50 47.2783 50C46.1783 50 45.4783 49.475 45.1533 48.525L41.9033 50.375C42.8783 52.4 44.7783 53.35 47.2783 53.35C49.9783 53.35 52.4783 52.125 52.4783 49.25C52.4783 44.625 46.3283 45.575 46.3283 44.15ZM57.5785 48.25H66.4535C66.5535 47.775 66.6035 47.275 66.6035 46.75C66.6035 42.975 63.9035 40.15 60.2535 40.15C56.3035 40.15 53.6035 43.025 53.6035 46.75C53.6035 50.475 56.2535 53.35 60.5285 53.35C62.9035 53.35 64.7535 52.475 65.9785 50.775L62.9785 49.05C62.4785 49.6 61.6035 50 60.5785 50C59.2035 50 58.0535 49.55 57.5785 48.25ZM57.5035 45.45C57.8535 44.175 58.8035 43.475 60.2285 43.475C61.3535 43.475 62.4785 44 62.8785 45.45H57.5035ZM76.0555 40.15C74.4055 40.15 73.1555 40.75 72.4805 41.675V40.5H68.7305V53H72.4805V46.175C72.4805 44.4 73.4305 43.6 74.8055 43.6C76.0055 43.6 76.9805 44.325 76.9805 45.875V53H80.7305V45.325C80.7305 41.95 78.5805 40.15 76.0555 40.15Z" fill="white"/>
<rect x="119" width="2" height="62" rx="1" fill="white"/>
</svg>
