<?xml version="1.0" encoding="utf-8"?>
<!-- Generator: Adobe Illustrator 24.1.0, SVG Export Plug-In . SVG Version: 6.00 Build 0)  -->
<svg version="1.1" id="Layer_1" xmlns="http://www.w3.org/2000/svg" xmlns:xlink="http://www.w3.org/1999/xlink" x="0px" y="0px"
	 viewBox="0 0 140.3 62" style="enable-background:new 0 0 140.3 62;" xml:space="preserve">
<style type="text/css">
	.st0{fill:#005DAA;}
	.st1{fill:#FFFFFF;}
	.st2{fill:#009DDC;}
</style>
<path class="st0" d="M137.3,32.4c0-13-10.5-23.6-23.5-23.6S90.2,19.4,90.2,32.4c0,13,10.5,23.6,23.5,23.6
	C126.7,56,137.3,45.4,137.3,32.4z"/>
<path class="st1" d="M125.3,22.1l-1.7,6.6h-0.1c-0.3-1.6-1.6-2.1-2.9-2.1c-3.7,0-5.3,3.4-6.5,8.2c-0.5,1.8-0.7,3.3-0.6,4.5
	c-0.2,0.1-0.4,0.1-0.5,0.1c-1.7,0-1.2-2.3-0.6-4.8l3.1-12.4h-4.6l-1.2,4.9h-3.5l-4.7,11.3h-0.1l1.1-11.3h-4.7l-0.2,15.3h5.4
	l5.6-11.2l-0.9,3.6c-1.5,5.7-0.4,7.9,2.7,7.9c1.5,0,2.7-0.8,3.4-1.6c0.5,1.1,1.5,1.6,2.9,1.6c2,0,3.3-1.2,3.9-2.3h0.1l-0.5,1.9h4.4
	l5.2-20.2L125.3,22.1z M122.1,34.7c-0.8,3-1.5,4.6-2.8,4.6c-1.7,0-1.2-2.3-0.5-4.8c0.7-2.8,1.3-4.6,2.9-4.6
	C123.3,29.9,122.8,32,122.1,34.7z"/>
<path class="st2" d="M37.2,27c-5.3,0-7.9,5.5-7.9,10.6c0,3.7,1.8,5.2,4.7,5.2c5.3,0,8-5.6,8-10.5C41.9,28.7,40.1,27,37.2,27z
	 M34.3,40.7c-1.9,0-2.7-1.2-2.7-3.2c0-3.6,1.5-8.5,5.2-8.5c1.6,0,2.7,0.9,2.7,3.3C39.5,35.6,38,40.7,34.3,40.7z M52.7,27
	c-2.1,0-3.5,1.4-4.3,2.4c-0.1-0.5-0.3-1.1-0.4-1.5c-0.2-0.5-0.3-0.6-0.5-0.6c-0.1,0-0.2,0.1-0.3,0.1L46,27.8
	c-0.2,0.1-0.5,0.2-0.5,0.4c0,0.2,0.1,0.3,0.2,0.4c0.3,0.7,0.3,1.2,0.3,1.7c0,0.6-0.1,1.4-0.2,1.8l-3.5,16.4c0,0.2,0,0.2,0.2,0.2
	c0.1,0,0.2-0.1,0.3-0.1l1.5-0.4c0.2-0.1,0.3-0.3,0.3-0.5l1.3-6.2c0.7,0.4,1.6,1,3.4,1c4.6,0,6.8-5.9,6.8-11.2
	C56.2,28.5,54.9,27,52.7,27z M49.3,40.7c-1.4,0-2.1-0.5-2.9-0.9l1.1-5c0.6-3.1,2.3-5.7,4.6-5.7c1.3,0,1.7,1.1,1.7,2.6
	C53.8,35,52.7,40.7,49.3,40.7z M70.9,31c0-2.3-1.3-4-4.1-4c-4.6,0-7.8,4.8-7.8,10.1c0,3.4,1.5,5.7,5,5.7c3,0,5.7-1.8,5.7-2.2
	c0-0.1,0-0.1-0.1-0.2l-0.7-1.1c-0.1-0.1-0.2-0.2-0.3-0.2c-0.4,0-1.7,1.5-4.4,1.5c-2,0-2.9-1.2-2.9-3.4c0-0.2,0-0.5,0-0.8
	C64.1,36.4,70.9,36.4,70.9,31z M66.5,28.9c1.5,0,2.3,0.8,2.3,2.1c0,3.4-5.4,3.4-7.1,3.4C61.9,32.9,62.9,28.9,66.5,28.9z M82.8,27
	c-2.8,0-4.4,1.7-5.6,3.3h-0.1c0-0.3,0.1-0.8,0.1-1.4c0-1-0.3-1.9-0.6-1.9c-0.1,0-0.2,0.1-0.4,0.2l-1.1,0.5c-0.1,0-0.3,0.1-0.3,0.2
	c0.1,0.6,0.2,1.2,0.2,1.9c0,0.4-0.1,1.1-0.2,1.8l-2.2,10.4c0,0.1,0,0.2,0,0.2c0,0.1,0.1,0.2,0.2,0.2h1.6c0.2,0,0.3-0.1,0.4-0.3
	l1.4-6.8c0.4-2,2.3-6.2,5.6-6.2c0.9,0,1.4,0.5,1.4,1.3c0,0.4-0.1,0.8-0.2,1.2l-2.2,10.3c0,0.1,0,0.2,0,0.2c0,0.1,0.1,0.2,0.2,0.2
	h1.6c0.2,0,0.3-0.1,0.4-0.3l2.2-10.4c0.2-0.7,0.3-1.4,0.3-2.2C85.6,27.8,84.4,27,82.8,27z"/>
<rect x="12.3" y="10" class="st0" width="1" height="44"/>
</svg>
