<svg width="253" height="62" viewBox="0 0 253 62" fill="none" xmlns="http://www.w3.org/2000/svg">
<path d="M253 30.9995C253 16.6402 241.399 5 227.088 5C212.777 5 201.176 16.6402 201.176 30.9995C201.176 45.3585 212.777 56.9997 227.088 56.9997C241.399 57 253 45.3585 253 30.9995Z" fill="#005DAA"/>
<path d="M239.814 19.6414L237.963 26.8713H237.898C237.523 25.0623 236.124 24.5968 234.723 24.5968C230.594 24.5968 228.881 28.3669 227.536 33.6039C227.015 35.637 226.789 37.2629 226.832 38.5383C226.644 38.6133 226.446 38.6571 226.228 38.6571C224.333 38.6571 224.905 36.0695 225.598 33.3599L229.003 19.6421H223.972L222.633 25.0328H218.761L213.585 37.464H213.525L214.757 25.0328H209.54L209.344 41.8901H215.309L221.5 29.592L220.502 33.6098C218.889 39.9038 220.068 42.3334 223.453 42.3334C225.063 42.3334 226.475 41.4939 227.239 40.5472C227.793 41.7776 228.892 42.3258 230.488 42.3258C232.722 42.3258 234.092 40.9869 234.758 39.8331H234.82L234.293 41.8898H239.141L244.845 19.6411L239.814 19.6414ZM236.336 33.5706C235.497 36.8441 234.724 38.6502 233.232 38.6502C231.337 38.6502 231.938 36.0623 232.633 33.353C233.416 30.2996 234.026 28.2734 235.86 28.2734C237.569 28.2737 237.105 30.5796 236.336 33.5706Z" fill="white"/>
<path d="M142.711 25.0386C136.858 25.0386 134 31.0829 134 36.6811C134 40.7466 135.975 42.3849 139.139 42.3849C144.926 42.3849 147.92 36.2378 147.92 30.8104C147.921 26.9166 145.947 25.0386 142.711 25.0386ZM139.548 40.1679C137.438 40.1679 136.587 38.8702 136.587 36.617C136.587 32.6528 138.218 27.2591 142.339 27.2591C144.074 27.2591 145.333 28.2847 145.333 30.8444C145.334 34.5652 143.598 40.1679 139.548 40.1679ZM159.801 25.0386C157.451 25.0386 155.987 26.6114 155.034 27.667C154.931 27.1224 154.727 26.4056 154.558 25.9601C154.353 25.4491 154.184 25.2447 154.045 25.2447C153.912 25.2447 153.807 25.3098 153.707 25.3477L152.447 25.9287C152.277 25.9941 151.935 26.0962 151.935 26.335C151.935 26.5754 152.073 26.6785 152.106 26.8152C152.447 27.5666 152.447 28.1793 152.447 28.7305C152.447 29.446 152.378 30.2294 152.244 30.7414L148.397 48.8064C148.397 48.9768 148.397 49.0799 148.635 49.0799C148.771 49.0799 148.873 49.0122 148.943 49.0122L150.643 48.6033C150.881 48.5333 150.948 48.2611 150.98 48.0553L152.446 41.2602C153.196 41.7045 154.216 42.3852 156.191 42.3852C161.229 42.3852 163.645 35.9326 163.645 30.0937C163.645 26.7115 162.249 25.0386 159.801 25.0386ZM156.089 40.0989C154.59 40.0989 153.773 39.5873 152.923 39.074L154.081 33.61C154.795 30.1958 156.598 27.3278 159.186 27.3278C160.614 27.3278 161.058 28.4911 161.058 30.2294C161.058 33.8485 159.833 40.0989 156.089 40.0989ZM179.846 29.41C179.846 26.8842 178.38 25.0386 175.352 25.0386C170.281 25.0386 166.742 30.3322 166.742 36.1367C166.742 39.9281 168.41 42.3849 172.253 42.3849C175.555 42.3849 178.552 40.373 178.552 39.9618C178.552 39.8958 178.519 39.8581 178.484 39.7888L177.666 38.5614C177.599 38.4616 177.497 38.355 177.361 38.355C176.884 38.355 175.521 39.9946 172.491 39.9946C170.281 39.9946 169.328 38.6622 169.328 36.2372C169.328 35.9656 169.362 35.6918 169.362 35.386C172.358 35.3513 179.846 35.3513 179.846 29.41ZM174.98 27.1561C176.647 27.1561 177.461 28.0796 177.461 29.513C177.461 33.2708 171.506 33.2708 169.633 33.2708C170.01 31.5968 171.099 27.1561 174.98 27.1561ZM192.982 25.0386C189.952 25.0386 188.079 26.8839 186.823 28.6556H186.753C186.753 28.3511 186.856 27.8067 186.856 27.1224C186.856 26.0638 186.479 25.0389 186.207 25.0389C186.071 25.0389 185.936 25.1419 185.731 25.2106L184.507 25.7219C184.372 25.7543 184.201 25.8587 184.201 25.9944C184.335 26.6788 184.472 27.3628 184.472 28.0462C184.472 28.5235 184.372 29.2752 184.236 29.99L181.818 41.463C181.785 41.535 181.785 41.6358 181.785 41.7041C181.785 41.8405 181.887 41.9079 182.056 41.9079H183.825C184.097 41.9079 184.166 41.8085 184.236 41.568L185.8 34.1216C186.277 31.87 188.286 27.3275 191.96 27.3275C192.982 27.3275 193.493 27.8401 193.493 28.7947C193.493 29.2405 193.39 29.7185 193.288 30.1634L190.905 41.4627C190.872 41.5347 190.872 41.6354 190.872 41.7038C190.872 41.8402 190.972 41.9076 191.142 41.9076H192.912C193.187 41.9076 193.255 41.8081 193.319 41.5677L195.738 30.163C195.908 29.3763 196.08 28.5896 196.08 27.7685C196.079 25.9601 194.75 25.0386 192.982 25.0386Z" fill="#009DDC"/>
<rect x="121" y="5" width="2" height="52" rx="1" fill="#005DAA"/>
<path d="M14.85 29.35C18.05 29.35 20.85 27.775 22.35 25.3L18.9 23.3C18.15 24.65 16.625 25.45 14.85 25.45C11.75 25.45 9.75 23.375 9.75 20.25C9.75 17.125 11.75 15.05 14.85 15.05C16.625 15.05 18.125 15.85 18.9 17.2L22.35 15.2C20.825 12.725 18.025 11.15 14.85 11.15C9.575 11.15 5.75 15.1 5.75 20.25C5.75 25.4 9.575 29.35 14.85 29.35ZM31.6688 16.15C30.0188 16.15 28.7688 16.75 28.0938 17.675V11.5H24.3438V29H28.0938V22.175C28.0938 20.4 29.0438 19.6 30.4188 19.6C31.6188 19.6 32.5938 20.325 32.5938 21.875V29H36.3438V21.325C36.3438 17.95 34.1938 16.15 31.6688 16.15ZM42.6689 18.725V16.5H38.9189V29H42.6689V23.35C42.6689 20.875 44.8689 20.25 46.4189 20.5V16.25C44.8439 16.25 43.1689 17.05 42.6689 18.725ZM50.0469 15.4C51.2719 15.4 52.2969 14.375 52.2969 13.15C52.2969 11.925 51.2719 10.9 50.0469 10.9C48.8219 10.9 47.7969 11.925 47.7969 13.15C47.7969 14.375 48.8219 15.4 50.0469 15.4ZM48.1719 29H51.9219V16.5H48.1719V29ZM58.0939 20.15C58.0939 19.7 58.4939 19.45 59.1439 19.45C59.9689 19.45 60.4689 19.9 60.8189 20.55L64.0189 18.825C62.9689 17.05 61.1689 16.15 59.1439 16.15C56.5439 16.15 54.2439 17.525 54.2439 20.25C54.2439 24.575 60.3939 23.85 60.3939 25.225C60.3939 25.725 59.9439 26 59.0439 26C57.9439 26 57.2439 25.475 56.9189 24.525L53.6689 26.375C54.6439 28.4 56.5439 29.35 59.0439 29.35C61.7439 29.35 64.2439 28.125 64.2439 25.25C64.2439 20.625 58.0939 21.575 58.0939 20.15ZM73.075 20.1V16.5H70.5V13L66.75 14.125V16.5H64.75V20.1H66.75V24.525C66.75 28.025 68.175 29.5 73.075 29V25.6C71.425 25.7 70.5 25.6 70.5 24.525V20.1H73.075ZM77.0732 15.4C78.2982 15.4 79.3232 14.375 79.3232 13.15C79.3232 11.925 78.2982 10.9 77.0732 10.9C75.8482 10.9 74.8232 11.925 74.8232 13.15C74.8232 14.375 75.8482 15.4 77.0732 15.4ZM75.1982 29H78.9482V16.5H75.1982V29ZM90.7674 16.5V17.675C89.9424 16.725 88.7174 16.15 87.0424 16.15C83.7674 16.15 81.0674 19.025 81.0674 22.75C81.0674 26.475 83.7674 29.35 87.0424 29.35C88.7174 29.35 89.9424 28.775 90.7674 27.825V29H94.5174V16.5H90.7674ZM87.7924 25.8C86.0674 25.8 84.8174 24.625 84.8174 22.75C84.8174 20.875 86.0674 19.7 87.7924 19.7C89.5174 19.7 90.7674 20.875 90.7674 22.75C90.7674 24.625 89.5174 25.8 87.7924 25.8ZM104.594 16.15C102.944 16.15 101.694 16.75 101.019 17.675V16.5H97.2686V29H101.019V22.175C101.019 20.4 101.969 19.6 103.344 19.6C104.544 19.6 105.519 20.325 105.519 21.875V29H109.269V21.325C109.269 17.95 107.119 16.15 104.594 16.15Z" fill="#005DAA"/>
<path d="M10.5 49.15V35.5H6.5V53H16.75V49.15H10.5ZM21.6146 48.25H30.4896C30.5896 47.775 30.6396 47.275 30.6396 46.75C30.6396 42.975 27.9396 40.15 24.2896 40.15C20.3396 40.15 17.6396 43.025 17.6396 46.75C17.6396 50.475 20.2896 53.35 24.5646 53.35C26.9396 53.35 28.7896 52.475 30.0146 50.775L27.0146 49.05C26.5146 49.6 25.6396 50 24.6146 50C23.2396 50 22.0896 49.55 21.6146 48.25ZM21.5396 45.45C21.8896 44.175 22.8396 43.475 24.2646 43.475C25.3896 43.475 26.5146 44 26.9146 45.45H21.5396ZM40.1533 40.5L37.8033 48.15L35.0283 40.5H30.9033L35.8783 52.425C35.3283 53.95 34.5033 54.5 32.7533 54.5V58C36.2533 58.175 38.4783 56.6 39.8783 52.625L44.1533 40.5H40.1533ZM48.3283 44.15C48.3283 43.7 48.7283 43.45 49.3783 43.45C50.2033 43.45 50.7033 43.9 51.0533 44.55L54.2533 42.825C53.2033 41.05 51.4033 40.15 49.3783 40.15C46.7783 40.15 44.4783 41.525 44.4783 44.25C44.4783 48.575 50.6283 47.85 50.6283 49.225C50.6283 49.725 50.1783 50 49.2783 50C48.1783 50 47.4783 49.475 47.1533 48.525L43.9033 50.375C44.8783 52.4 46.7783 53.35 49.2783 53.35C51.9783 53.35 54.4783 52.125 54.4783 49.25C54.4783 44.625 48.3283 45.575 48.3283 44.15ZM59.5785 48.25H68.4535C68.5535 47.775 68.6035 47.275 68.6035 46.75C68.6035 42.975 65.9035 40.15 62.2535 40.15C58.3035 40.15 55.6035 43.025 55.6035 46.75C55.6035 50.475 58.2535 53.35 62.5285 53.35C64.9035 53.35 66.7535 52.475 67.9785 50.775L64.9785 49.05C64.4785 49.6 63.6035 50 62.5785 50C61.2035 50 60.0535 49.55 59.5785 48.25ZM59.5035 45.45C59.8535 44.175 60.8035 43.475 62.2285 43.475C63.3535 43.475 64.4785 44 64.8785 45.45H59.5035ZM78.0555 40.15C76.4055 40.15 75.1555 40.75 74.4805 41.675V40.5H70.7305V53H74.4805V46.175C74.4805 44.4 75.4305 43.6 76.8055 43.6C78.0055 43.6 78.9805 44.325 78.9805 45.875V53H82.7305V45.325C82.7305 41.95 80.5805 40.15 78.0555 40.15Z" fill="#005DAA"/>
</svg>
