<?xml version="1.0" encoding="utf-8"?>
<!-- Generator: Adobe Illustrator 24.1.0, SVG Export Plug-In . SVG Version: 6.00 Build 0)  -->
<svg version="1.1" id="Layer_1" xmlns="http://www.w3.org/2000/svg" xmlns:xlink="http://www.w3.org/1999/xlink" x="0px" y="0px"
	 viewBox="0 0 140.6 62" style="enable-background:new 0 0 140.6 62;" xml:space="preserve">
<style type="text/css">
	.st0{fill-rule:evenodd;clip-rule:evenodd;fill:#FFFFFF;}
	.st1{fill:#FFFFFF;}
</style>
<path class="st0" d="M114.1,8.8c13,0,23.5,10.6,23.5,23.6c0,13-10.5,23.6-23.5,23.6c-13,0-23.5-10.6-23.5-23.6
	C90.6,19.4,101.1,8.8,114.1,8.8z M123.9,28.7l1.7-6.6l4.6,0L125,42.3h-4.4l0.5-1.9H121c-0.6,1-1.8,2.3-3.9,2.3
	c-1.4,0-2.4-0.5-2.9-1.6c-0.7,0.9-2,1.6-3.4,1.6c-3.1,0-4.1-2.2-2.7-7.9l0.9-3.6l-5.6,11.2H98L98.2,27h4.7l-1.1,11.3h0.1l4.7-11.3
	h3.5l1.2-4.9h4.6l-3.1,12.4c-0.6,2.5-1.1,4.8,0.6,4.8c0.2,0,0.4,0,0.5-0.1c0-1.2,0.2-2.6,0.6-4.5c1.2-4.8,2.8-8.2,6.5-8.2
	C122.3,26.6,123.5,27,123.9,28.7L123.9,28.7z M119.7,39.3c1.4,0,2.1-1.6,2.8-4.6c0.7-2.7,1.1-4.8-0.4-4.8c-1.7,0-2.2,1.8-2.9,4.6
	C118.5,37,117.9,39.3,119.7,39.3z"/>
<path class="st1" d="M37.5,27c-5.3,0-7.9,5.5-7.9,10.6c0,3.7,1.8,5.2,4.7,5.2c5.3,0,8-5.6,8-10.5C42.2,28.7,40.4,27,37.5,27z
	 M34.6,40.7c-1.9,0-2.7-1.2-2.7-3.2c0-3.6,1.5-8.5,5.2-8.5c1.6,0,2.7,0.9,2.7,3.3C39.9,35.6,38.3,40.7,34.6,40.7z M53,27
	c-2.1,0-3.5,1.4-4.3,2.4c-0.1-0.5-0.3-1.1-0.4-1.5c-0.2-0.5-0.3-0.6-0.5-0.6c-0.1,0-0.2,0.1-0.3,0.1l-1.1,0.5
	c-0.2,0.1-0.5,0.2-0.5,0.4c0,0.2,0.1,0.3,0.2,0.4c0.3,0.7,0.3,1.2,0.3,1.7c0,0.6-0.1,1.4-0.2,1.8l-3.5,16.4c0,0.2,0,0.2,0.2,0.2
	c0.1,0,0.2-0.1,0.3-0.1l1.5-0.4c0.2-0.1,0.3-0.3,0.3-0.5l1.3-6.2c0.7,0.4,1.6,1,3.4,1c4.6,0,6.8-5.9,6.8-11.2
	C56.5,28.5,55.2,27,53,27z M49.6,40.7c-1.4,0-2.1-0.5-2.9-0.9l1.1-5c0.6-3.1,2.3-5.7,4.6-5.7c1.3,0,1.7,1.1,1.7,2.6
	C54.2,35,53,40.7,49.6,40.7z M71.2,31c0-2.3-1.3-4-4.1-4c-4.6,0-7.8,4.8-7.8,10.1c0,3.4,1.5,5.7,5,5.7c3,0,5.7-1.8,5.7-2.2
	c0-0.1,0-0.1-0.1-0.2l-0.7-1.1c-0.1-0.1-0.2-0.2-0.3-0.2c-0.4,0-1.7,1.5-4.4,1.5c-2,0-2.9-1.2-2.9-3.4c0-0.2,0-0.5,0-0.8
	C64.4,36.4,71.2,36.4,71.2,31z M66.8,28.9c1.5,0,2.3,0.8,2.3,2.1c0,3.4-5.4,3.4-7.1,3.4C62.3,32.9,63.3,28.9,66.8,28.9z M83.1,27
	c-2.8,0-4.4,1.7-5.6,3.3h-0.1c0-0.3,0.1-0.8,0.1-1.4c0-1-0.3-1.9-0.6-1.9c-0.1,0-0.2,0.1-0.4,0.2l-1.1,0.5c-0.1,0-0.3,0.1-0.3,0.2
	c0.1,0.6,0.2,1.2,0.2,1.9c0,0.4-0.1,1.1-0.2,1.8L73,41.9c0,0.1,0,0.2,0,0.2c0,0.1,0.1,0.2,0.2,0.2h1.6c0.2,0,0.3-0.1,0.4-0.3
	l1.4-6.8c0.4-2,2.3-6.2,5.6-6.2c0.9,0,1.4,0.5,1.4,1.3c0,0.4-0.1,0.8-0.2,1.2l-2.2,10.3c0,0.1,0,0.2,0,0.2c0,0.1,0.1,0.2,0.2,0.2
	h1.6c0.2,0,0.3-0.1,0.4-0.3l2.2-10.4c0.2-0.7,0.3-1.4,0.3-2.2C85.9,27.8,84.7,27,83.1,27z"/>
<rect x="12.6" y="10" class="st1" width="1" height="44"/>
</svg>
