<svg width="20" height="20" viewBox="0 0 20 20" fill="none" xmlns="http://www.w3.org/2000/svg">
<path d="M19.3 4.7502C18.6093 5.0274 17.8803 5.2043 17.1365 5.27521C17.5306 5.06059 17.877 4.77221 18.1555 4.42675C18.4341 4.08129 18.6392 3.68563 18.7591 3.26268C18.0346 3.6812 17.242 3.97708 16.4153 4.13769C16.067 3.78062 15.6478 3.49573 15.183 3.30023C14.7182 3.10473 14.2174 3.00265 13.7108 3.00017C13.2241 2.9955 12.7413 3.0851 12.2907 3.26373C11.8401 3.44237 11.4308 3.70645 11.0866 4.04052C10.7424 4.37459 10.4703 4.77194 10.2863 5.20931C10.1023 5.64669 10.01 6.1153 10.0148 6.58772C10.0001 6.85325 10.0306 7.11931 10.1049 7.37523C8.63074 7.28899 7.19036 6.91067 5.87253 6.26357C4.55471 5.61648 3.38734 4.71432 2.44236 3.61268C2.07569 4.15841 1.88718 4.79883 1.90148 5.45021C1.89253 6.03851 2.03652 6.61952 2.32014 7.13951C2.60375 7.6595 3.01785 8.10171 3.52414 8.42525C2.92531 8.41493 2.33783 8.26486 1.81133 7.98774C1.8106 8.81587 2.10722 9.61836 2.65016 10.2572C3.19311 10.896 3.94844 11.3311 4.78621 11.4878C4.46193 11.5643 4.12776 11.5938 3.79458 11.5753C3.55069 11.5895 3.30619 11.5598 3.0734 11.4878C3.31198 12.198 3.76738 12.821 4.37919 13.2742C4.99099 13.7274 5.73029 13.9894 6.49901 14.0253C5.18092 15.0061 3.56222 15.5298 1.90148 15.5128C1.59818 15.5272 1.29437 15.4977 1 15.4253C2.69175 16.4823 4.66764 17.0302 6.67931 17.0004C8.06708 17.0097 9.44291 16.7512 10.7269 16.24C12.0109 15.7288 13.1774 14.9751 14.1587 14.0226C15.1401 13.0701 15.9166 11.9378 16.4433 10.6915C16.9699 9.44519 17.2362 8.10975 17.2266 6.76273V6.32522C18.0904 6.05928 18.8265 5.50011 19.3 4.7502Z" fill="#FFFFFF"/>
</svg>
